<svg width="1440" height="1024" viewBox="0 0 1440 1024" fill="none" xmlns="http://www.w3.org/2000/svg">
<rect width="1440" height="1024" fill="#038C7F"/>
<path d="M599.868 1024H122.956C120.615 1024 118.37 1023.04 116.715 1021.32C115.059 1019.61 114.128 1017.29 114.125 1014.87V593.238C114.128 590.818 115.059 588.497 116.715 586.786C118.37 585.074 120.615 584.111 122.956 584.108H599.868C602.209 584.111 604.454 585.074 606.109 586.786C607.765 588.497 608.696 590.818 608.699 593.238V1014.87C608.697 1017.29 607.765 1019.61 606.11 1021.32C604.454 1023.03 602.21 1024 599.868 1024ZM122.956 587.753C121.553 587.756 120.208 588.334 119.216 589.36C118.224 590.385 117.665 591.776 117.662 593.226V1014.87C117.665 1016.32 118.224 1017.71 119.216 1018.74C120.208 1019.76 121.553 1020.34 122.956 1020.34H599.868C601.271 1020.34 602.616 1019.76 603.609 1018.74C604.601 1017.71 605.16 1016.32 605.162 1014.87V593.238C605.159 591.788 604.6 590.397 603.608 589.372C602.616 588.346 601.271 587.768 599.868 587.765L122.956 587.753Z" fill="#E6E6E6"/>
<path d="M197.057 986.217C216.925 986.217 233.032 969.565 233.032 949.023C233.032 928.482 216.925 911.83 197.057 911.83C177.188 911.83 161.082 928.482 161.082 949.023C161.082 969.565 177.188 986.217 197.057 986.217Z" fill="#E6E6E6"/>
<path d="M280.145 924.227C278.555 924.227 277.03 924.881 275.905 926.043C274.781 927.205 274.149 928.782 274.149 930.426C274.149 932.07 274.781 933.647 275.905 934.809C277.03 935.972 278.555 936.625 280.145 936.625H562.811C564.401 936.625 565.926 935.972 567.05 934.809C568.175 933.647 568.807 932.07 568.807 930.426C568.807 928.782 568.175 927.205 567.05 926.043C565.926 924.881 564.401 924.227 562.811 924.227H280.145Z" fill="#E6E6E6"/>
<path d="M280.145 961.422C278.555 961.422 277.03 962.075 275.905 963.238C274.781 964.4 274.149 965.977 274.149 967.621C274.149 969.265 274.781 970.842 275.905 972.004C277.03 973.166 278.555 973.819 280.145 973.819H401.777C403.367 973.819 404.892 973.166 406.017 972.004C407.141 970.842 407.773 969.265 407.773 967.621C407.773 965.977 407.141 964.4 406.017 963.238C404.892 962.075 403.367 961.422 401.777 961.422H280.145Z" fill="#E6E6E6"/>
<path d="M713.177 876.941H236.263C233.922 876.938 231.677 875.976 230.021 874.264C228.366 872.552 227.435 870.232 227.432 867.811V651.43C227.435 649.01 228.366 646.689 230.021 644.977C231.677 643.266 233.922 642.303 236.263 642.3H713.177C715.518 642.303 717.763 643.266 719.419 644.977C721.074 646.689 722.006 649.01 722.008 651.43V867.811C722.006 870.232 721.074 872.552 719.419 874.264C717.763 875.976 715.518 876.938 713.177 876.941Z" fill="#0D0D0D"/>
<path d="M333.387 717.719C331.797 717.719 330.272 718.373 329.148 719.535C328.023 720.697 327.391 722.274 327.391 723.918C327.391 725.562 328.023 727.139 329.148 728.301C330.272 729.464 331.797 730.117 333.387 730.117H616.055C617.645 730.117 619.17 729.464 620.294 728.301C621.419 727.139 622.05 725.562 622.05 723.918C622.05 722.274 621.419 720.697 620.294 719.535C619.17 718.373 617.645 717.719 616.055 717.719H333.387Z" fill="white"/>
<path d="M333.387 753.638C331.797 753.638 330.272 754.291 329.148 755.454C328.023 756.616 327.391 758.193 327.391 759.837C327.391 761.481 328.023 763.058 329.148 764.22C330.272 765.382 331.797 766.035 333.387 766.035H616.055C617.645 766.035 619.17 765.382 620.294 764.22C621.419 763.058 622.05 761.481 622.05 759.837C622.05 758.193 621.419 756.616 620.294 755.454C619.17 754.291 617.645 753.638 616.055 753.638H333.387Z" fill="white"/>
<path d="M333.387 789.123C331.797 789.123 330.272 789.776 329.148 790.938C328.023 792.101 327.391 793.677 327.391 795.321C327.391 796.965 328.023 798.542 329.148 799.704C330.272 800.867 331.797 801.52 333.387 801.52H455.019C456.61 801.52 458.135 800.867 459.259 799.704C460.383 798.542 461.015 796.965 461.015 795.321C461.015 793.677 460.383 792.101 459.259 790.938C458.135 789.776 456.61 789.123 455.019 789.123H333.387Z" fill="white"/>
<path d="M1250.05 1019.86H773.138C770.797 1019.85 768.552 1018.89 766.897 1017.18C765.241 1015.47 764.31 1013.15 764.307 1010.73V888.418C764.31 885.998 765.241 883.677 766.897 881.966C768.552 880.254 770.797 879.291 773.138 879.288H1250.05C1252.39 879.291 1254.64 880.254 1256.29 881.966C1257.95 883.677 1258.88 885.998 1258.88 888.418V1010.73C1258.88 1013.15 1257.95 1015.47 1256.29 1017.18C1254.64 1018.89 1252.39 1019.85 1250.05 1019.86ZM773.138 882.933C771.735 882.936 770.39 883.514 769.398 884.539C768.406 885.565 767.847 886.956 767.844 888.406V1010.71C767.847 1012.16 768.406 1013.55 769.398 1014.58C770.39 1015.61 771.735 1016.18 773.138 1016.19H1250.05C1251.45 1016.18 1252.8 1015.61 1253.79 1014.58C1254.78 1013.55 1255.34 1012.16 1255.34 1010.71V888.418C1255.34 886.967 1254.78 885.577 1253.79 884.551C1252.8 883.525 1251.45 882.948 1250.05 882.945L773.138 882.933Z" fill="#E6E6E6"/>
<path d="M847.241 982.072C867.109 982.072 883.216 965.42 883.216 944.879C883.216 924.338 867.109 907.686 847.241 907.686C827.372 907.686 811.266 924.338 811.266 944.879C811.266 965.42 827.372 982.072 847.241 982.072Z" fill="#E6E6E6"/>
<path d="M930.327 920.083C928.737 920.083 927.212 920.736 926.087 921.899C924.963 923.061 924.331 924.638 924.331 926.282C924.331 927.926 924.963 929.502 926.087 930.665C927.212 931.827 928.737 932.48 930.327 932.48H1212.99C1214.58 932.48 1216.11 931.827 1217.23 930.665C1218.36 929.502 1218.99 927.926 1218.99 926.282C1218.99 924.638 1218.36 923.061 1217.23 921.899C1216.11 920.736 1214.58 920.083 1212.99 920.083H930.327Z" fill="#E6E6E6"/>
<path d="M930.327 957.278C928.737 957.278 927.212 957.931 926.087 959.094C924.963 960.256 924.331 961.833 924.331 963.477C924.331 965.121 924.963 966.697 926.087 967.86C927.212 969.022 928.737 969.675 930.327 969.675H1051.96C1053.55 969.675 1055.07 969.022 1056.2 967.86C1057.32 966.697 1057.95 965.121 1057.95 963.477C1057.95 961.833 1057.32 960.256 1056.2 959.094C1055.07 957.931 1053.55 957.278 1051.96 957.278H930.327Z" fill="#E6E6E6"/>
<path d="M1167.27 876.383L730.335 673.979C728.191 672.982 726.507 671.162 725.651 668.917C724.795 666.672 724.837 664.185 725.769 662.002L772.986 551.772C773.923 549.591 775.672 547.895 777.85 547.055C780.028 546.215 782.456 546.3 784.602 547.291L1221.53 749.695C1223.68 750.691 1225.36 752.512 1226.22 754.757C1227.07 757.002 1227.03 759.489 1226.1 761.672L1178.88 871.901C1177.95 874.081 1176.2 875.777 1174.02 876.617C1171.84 877.457 1169.41 877.372 1167.27 876.381V876.383ZM783.195 550.576C781.908 549.984 780.453 549.933 779.148 550.437C777.843 550.94 776.794 551.956 776.232 553.262L729.015 663.491C728.458 664.8 728.433 666.29 728.946 667.636C729.459 668.981 730.468 670.073 731.752 670.671L1168.68 873.075C1169.97 873.668 1171.42 873.718 1172.73 873.215C1174.04 872.711 1175.08 871.695 1175.65 870.389L1222.86 760.17C1223.42 758.862 1223.44 757.371 1222.93 756.026C1222.41 754.68 1221.41 753.589 1220.12 752.991L783.195 550.576Z" fill="#E6E6E6"/>
<path d="M813.14 672.146C831.421 680.638 852.698 672.41 860.663 653.768C868.629 635.126 860.266 613.128 841.985 604.636C823.704 596.143 802.427 604.371 794.462 623.013C786.496 641.656 794.859 663.653 813.14 672.146Z" fill="#E6E6E6"/>
<path d="M913.162 650.693C911.708 650.022 910.062 649.964 908.586 650.531C907.11 651.098 905.925 652.244 905.292 653.716C904.659 655.188 904.629 656.866 905.209 658.381C905.79 659.896 906.933 661.123 908.387 661.794L1166.84 780.955C1168.3 781.625 1169.94 781.683 1171.42 781.116C1172.9 780.549 1174.08 779.404 1174.71 777.931C1175.35 776.459 1175.38 774.781 1174.8 773.266C1174.22 771.751 1173.07 770.524 1171.62 769.853L913.162 650.693Z" fill="#E6E6E6"/>
<path d="M898.524 684.694C897.07 684.022 895.423 683.964 893.946 684.532C892.47 685.1 891.284 686.247 890.651 687.722C890.017 689.197 889.987 690.878 890.568 692.395C891.149 693.913 892.292 695.143 893.747 695.815L1005.01 747.186C1006.47 747.858 1008.11 747.916 1009.59 747.348C1011.07 746.78 1012.25 745.633 1012.89 744.158C1013.52 742.683 1013.55 741.002 1012.97 739.484C1012.39 737.967 1011.24 736.737 1009.79 736.065L898.524 684.694Z" fill="#E6E6E6"/>
<path d="M807.943 535.39L332.601 579.432C330.267 579.645 327.952 578.901 326.162 577.364C324.372 575.827 323.254 573.621 323.053 571.231L313.065 450.445C312.87 448.054 313.609 445.677 315.119 443.834C316.629 441.99 318.788 440.832 321.121 440.613L796.463 396.571C798.796 396.358 801.112 397.102 802.902 398.639C804.692 400.176 805.81 402.382 806.011 404.772L815.999 525.557C816.194 527.947 815.455 530.325 813.945 532.169C812.435 534.012 810.276 535.171 807.943 535.39ZM321.419 444.212C320.021 444.345 318.727 445.04 317.822 446.144C316.917 447.249 316.474 448.674 316.589 450.106L326.578 570.891C326.699 572.323 327.37 573.645 328.442 574.566C329.515 575.487 330.903 575.934 332.301 575.807L807.643 531.765C809.041 531.633 810.335 530.939 811.24 529.834C812.145 528.729 812.588 527.304 812.472 525.871L802.485 405.099C802.364 403.666 801.694 402.345 800.621 401.423C799.548 400.502 798.16 400.056 796.761 400.183L321.419 444.212Z" fill="#E6E6E6"/>
<path d="M403.484 535.048C423.321 533.202 438.039 515.168 436.358 494.768C434.677 474.367 417.234 459.326 397.397 461.172C377.561 463.017 362.842 481.052 364.523 501.452C366.204 521.852 383.648 536.894 403.484 535.048Z" fill="#E6E6E6"/>
<path d="M481.109 466.216C479.525 466.36 478.059 467.135 477.034 468.368C476.009 469.602 475.508 471.194 475.642 472.794C475.776 474.394 476.534 475.871 477.748 476.9C478.963 477.929 480.535 478.426 482.119 478.282L763.686 452.587C765.27 452.442 766.736 451.668 767.761 450.434C768.787 449.201 769.287 447.609 769.153 446.009C769.019 444.409 768.261 442.932 767.047 441.903C765.832 440.873 764.26 440.376 762.676 440.521L481.109 466.216Z" fill="#E6E6E6"/>
<path d="M484.24 503.185C482.655 503.33 481.189 504.109 480.164 505.351C479.139 506.592 478.638 508.193 478.772 509.803C478.906 511.413 479.664 512.899 480.879 513.934C482.094 514.97 483.667 515.47 485.251 515.324L606.426 504.194C608.01 504.049 609.476 503.27 610.501 502.028C611.527 500.787 612.027 499.186 611.893 497.576C611.759 495.966 611.001 494.48 609.786 493.445C608.571 492.409 606.999 491.909 605.415 492.055L484.24 503.185Z" fill="#E6E6E6"/>
<path d="M717.968 142.328C748.121 142.328 772.564 117.057 772.564 85.8837C772.564 54.7106 748.121 29.4398 717.968 29.4398C687.816 29.4398 663.373 54.7106 663.373 85.8837C663.373 117.057 687.816 142.328 717.968 142.328Z" fill="#2F2E41"/>
<path d="M719.077 147.314C741.518 147.314 759.711 128.505 759.711 105.304C759.711 82.1025 741.518 63.2941 719.077 63.2941C696.635 63.2941 678.443 82.1025 678.443 105.304C678.443 128.505 696.635 147.314 719.077 147.314Z" fill="#FEB8B8"/>
<path d="M780.836 166.274C780.836 166.274 706.388 152.59 658.41 169.694L672.472 285.148L669.163 303.963L768.428 300.542L761.81 281.727L780.836 166.274Z" fill="#FEB8B8"/>
<path d="M729.101 290.864C711.961 290.653 694.843 289.532 677.814 287.505C674.317 287.107 671.091 285.368 668.775 282.63C666.459 279.892 665.221 276.355 665.305 272.719L666.513 218.726L666.654 218.515C681.037 196.976 674.031 181.243 668.639 172.773C667.501 170.984 666.896 168.89 666.898 166.749C666.071 165.552 665.886 167.442 666.402 166.101C666.656 165.435 667.067 164.846 667.598 164.387C668.128 163.927 668.761 163.612 669.44 163.47L677.652 161.774C678.638 161.57 679.661 161.744 680.531 162.264C681.401 162.784 682.059 163.613 682.38 164.597C685.14 173.11 695.895 200.501 720.541 200.494C741.13 200.494 748.813 170.372 749.273 163.41C749.348 162.332 749.815 161.323 750.58 160.586C751.345 159.849 752.352 159.439 753.398 159.439H763.655C764.304 159.423 764.948 159.559 765.54 159.835C766.132 160.112 766.656 160.522 767.073 161.036C767.584 161.691 767.895 162.488 767.967 163.326C768.039 164.163 767.868 165.004 767.477 165.742C755.77 187.994 772.878 223.212 773.052 223.554L773.161 223.776L768.334 275.59C768.042 278.63 766.835 281.499 764.884 283.793C762.934 286.087 760.336 287.691 757.458 288.379C749.995 290.19 739.908 290.864 729.101 290.864Z" fill="#A9D9D0"/>
<path d="M634.622 411.087C623.505 411.087 613.327 409.821 605.24 406.829C595.628 403.273 589.593 397.523 587.3 389.725C586.216 386.412 585.893 382.884 586.354 379.419C586.815 375.954 588.048 372.647 589.957 369.759C604.176 347.746 653.521 341.537 660.142 340.804L663.649 310.585C664.065 307.098 665.684 303.883 668.209 301.531C670.733 299.178 673.994 297.847 677.392 297.781L760.497 296.44C763.835 296.357 767.091 297.516 769.672 299.706C772.253 301.897 773.988 304.973 774.559 308.374L779.281 335.228L724.788 362.552L733.027 386.403L732.489 386.775C716.541 397.766 670.675 411.085 634.622 411.087Z" fill="#0D0D0D"/>
<path d="M771.737 331.329C771.737 331.329 847.84 321.067 842.877 362.117C837.913 403.167 780.009 432.244 692.325 362.117L702.252 341.592C702.252 341.592 751.884 355.275 771.737 345.013V331.329Z" fill="#0D0D0D"/>
<path d="M703.906 346.723C703.906 346.723 703.906 326.198 687.362 327.909C670.818 329.619 641.038 331.33 641.038 331.33C641.038 331.33 631.112 338.171 644.347 341.592C657.583 345.013 697.288 362.117 697.288 362.117L703.906 346.723Z" fill="#FEB8B8"/>
<path d="M732.031 343.303C732.031 343.303 732.031 322.777 748.575 324.488C765.119 326.198 794.899 327.909 794.899 327.909C794.899 327.909 804.825 334.75 791.59 338.171C778.354 341.592 738.649 358.696 738.649 358.696L732.031 343.303Z" fill="#FEB8B8"/>
<path d="M831.167 339.415L806.481 250.94C806.481 250.94 801.518 220.152 796.555 191.075C791.591 161.998 773.393 165.418 773.393 165.418L770.084 167.129V213.31L773.393 256.071L806.423 349.973C805.451 353.229 805.395 356.704 806.261 359.993C807.128 363.281 808.882 366.246 811.317 368.542C813.753 370.838 816.771 372.37 820.017 372.96C823.264 373.549 826.606 373.171 829.653 371.87C832.699 370.569 835.325 368.399 837.223 365.613C839.122 362.827 840.214 359.54 840.373 356.136C840.531 352.732 839.75 349.351 838.12 346.389C836.49 343.427 834.078 341.006 831.167 339.408V339.415Z" fill="#FEB8B8"/>
<path d="M664.2 168.839C664.2 168.839 646.002 165.418 641.038 194.496C636.075 223.573 631.112 254.36 631.112 254.36L606.426 342.835C603.515 344.433 601.103 346.855 599.473 349.817C597.843 352.779 597.061 356.159 597.22 359.563C597.379 362.967 598.471 366.254 600.369 369.04C602.268 371.827 604.893 373.997 607.94 375.298C610.987 376.599 614.329 376.977 617.575 376.387C620.822 375.798 623.84 374.266 626.275 371.97C628.711 369.674 630.465 366.708 631.332 363.42C632.198 360.132 632.142 356.657 631.17 353.401L664.2 259.499L667.509 216.738V174.374C667.509 173.225 667.199 172.098 666.615 171.121C666.03 170.143 665.194 169.353 664.2 168.839Z" fill="#FEB8B8"/>
<path d="M678.853 79.4971C694.722 89.5122 712.613 95.6066 731.132 97.306L725.622 90.4797C729.634 92.0125 733.856 92.8785 738.131 93.0454C740.271 93.1096 742.396 92.6542 744.335 91.7159C746.275 90.7775 747.974 89.3823 749.298 87.6421C750.379 85.8353 751.021 83.7848 751.17 81.6657C751.319 79.5466 750.969 77.4217 750.152 75.4725C748.473 71.5843 745.859 68.205 742.559 65.6563C736.711 60.8732 729.809 57.6602 722.468 56.3038C715.127 54.9474 707.575 55.4898 700.486 57.8825C695.621 59.3835 691.263 62.2715 687.913 66.2156C686.266 68.2018 685.123 70.5795 684.585 73.1353C684.047 75.691 684.132 78.3448 684.83 80.8586" fill="#2F2E41"/>
<path d="M723.107 35.705C710.291 22.2688 694.782 11.9003 677.672 5.3295C666.688 1.12356 654.733 -1.47623 643.252 0.913234C631.77 3.3027 620.917 11.5179 617.708 23.1624C615.089 32.6861 617.794 42.9417 621.859 51.9077C625.923 60.8738 631.352 69.1831 634.639 78.4878C637.994 87.9777 639.004 98.1839 637.576 108.18C636.149 118.175 632.329 127.644 626.463 135.726C620.597 143.808 612.872 150.248 603.988 154.46C595.105 158.672 585.344 160.523 575.593 159.846C586.874 161.409 597.274 166.891 608.302 169.809C619.331 172.727 632.346 172.529 640.54 164.361C649.211 155.72 649.385 141.669 648.964 129.226L647.095 73.7311C646.777 64.2981 646.506 54.5606 649.797 45.7554C653.087 36.9501 660.908 29.2395 670.038 29.3199C676.959 29.3815 683.082 33.714 688.632 37.9883C694.183 42.2627 700.048 46.8227 706.948 47.4572C713.849 48.0918 721.711 42.8203 721.194 35.6844" fill="#2F2E41"/>
<path d="M1378.6 943.285C1377.94 968.719 1373.82 993.931 1366.36 1018.18C1366.19 1018.74 1366.01 1019.29 1365.83 1019.86H1320.15C1320.19 1019.35 1320.24 1018.79 1320.29 1018.18C1323.34 981.973 1305.94 764.258 1284.94 726.578C1286.78 729.634 1382.14 828.252 1378.6 943.285Z" fill="#E6E6E6"/>
<path d="M1375.17 1018.18C1374.79 1018.74 1374.39 1019.3 1373.99 1019.86H1339.71C1339.97 1019.38 1340.27 1018.81 1340.62 1018.18C1346.28 1007.61 1363.04 976.028 1378.6 943.285C1395.31 908.098 1410.65 871.577 1409.36 858.359C1409.76 861.339 1421.32 952.22 1375.17 1018.18Z" fill="#E6E6E6"/>
</svg>
